<svg id="Layer_1" data-name="Layer 1" xmlns="http://www.w3.org/2000/svg" viewBox="0 0 78.71 15.11"><defs><style>.cls-1{fill:#383d3f;}.cls-2{fill:#4d7ebf;}</style></defs><path class="cls-1" d="M57.88,8.06H55C55.07,6.87,55.57,6,56.73,6a1.46,1.46,0,0,1,1.54,1.59c0,.21-.07.47-.39.47ZM56.8,4.67a3.51,3.51,0,0,0-3.61,3.67c0,2.78,1.55,4.15,3.72,4.15,1.18,0,2.52-.36,2.52-1.26v-.51a4.81,4.81,0,0,1-1.8.36c-1.52,0-2.35-.65-2.6-1.8h3.75C59.39,9.28,60,9,60,8.2c0-2.09-1.15-3.53-3.2-3.53ZM71.64,11.3a1,1,0,0,1-1-1.08c0-.54.36-.9,1-1L73.33,9c-.07,1.08-.72,2.31-1.69,2.31Zm3.68.36-.26-4c-.18-2.53-1.73-3-3.06-3-1.08,0-2.59.43-2.59,1.33v.55a4.49,4.49,0,0,1,1.87-.47c1.08,0,2,.36,2,1.69l-1.88.25c-1.91.22-2.7,1-2.7,2.16a2.12,2.12,0,0,0,2.16,2.27,2.84,2.84,0,0,0,2.6-1.44v1.37c1.3,0,1.91,0,1.84-.79Zm-26-6.95a3.13,3.13,0,0,0-2.7,1.51V4.85c-1.44,0-1.69,0-1.69.9v6.59H46.6v-4a2,2,0,0,1,1.95-2.16c1,0,1.44.72,1.44,1.8v4.32c1.55,0,1.73,0,1.73-.86V7.19A2.19,2.19,0,0,0,49.3,4.71ZM68,4.89H66.09a20.55,20.55,0,0,1-1.44,2.52L62.74,4.89H60.8v.18L63.32,8.6a13.83,13.83,0,0,0-2.63,3.78h1.94a13,13,0,0,1,1.59-2.59l1.91,2.62h2V12.2L65.59,8.74A16.61,16.61,0,0,0,68,5ZM39.65,11c-1.19,0-1.8-1.22-1.8-2.59s.5-2.27,1.8-2.27,1.91,1,1.91,2.34S41,11,39.68,11Zm0-6.34c-2.27,0-3.6,1.44-3.6,3.75s1.44,4.07,3.6,4.07,3.71-1.66,3.71-4A3.43,3.43,0,0,0,39.65,4.67Zm-17.84,3H21V4h1c1.23,0,2.38.36,2.38,1.66s-1,2.09-2.52,2.09Zm.26-5.34H21c-1.52,0-1.81,0-1.81.94v9H21V9.21h1c2.53,0,4.33-1.33,4.33-3.6s-1.76-3.24-4.25-3.24ZM32.15,4.67a3.13,3.13,0,0,0-2.7,1.51V2.33c-1.44,0-1.69,0-1.69.94v9.11h1.69v-4a2,2,0,0,1,1.91-2.16c1,0,1.52.72,1.52,1.8v4.32c1.44,0,1.69,0,1.69-.87V7.19a2.26,2.26,0,0,0-2.45-2.52Z"/><path class="cls-1" d="M78.34,6.25a1.26,1.26,0,0,1-2.15-.89,1.26,1.26,0,1,1,2.52,0A1.2,1.2,0,0,1,78.34,6.25ZM76.68,4.59a1.08,1.08,0,1,0,1.54,0,1.09,1.09,0,0,0-1.54,0Zm.74.07a.91.91,0,0,1,.38,0,.34.34,0,0,1,.22.35.3.3,0,0,1-.14.27.47.47,0,0,1-.2.07.33.33,0,0,1,.24.14.37.37,0,0,1,.08.21V6A.56.56,0,0,0,78,6v0h-.23V6h0V5.86a.35.35,0,0,0-.13-.32.58.58,0,0,0-.27,0h-.2v.55h-.24V4.66Zm.27.22a.58.58,0,0,0-.3,0h-.21v.5h.22a.7.7,0,0,0,.24,0,.22.22,0,0,0,.14-.22A.2.2,0,0,0,77.69,4.88Z"/><path class="cls-2" d="M5.88,0A6.55,6.55,0,0,1,8.19,12.88a4.35,4.35,0,0,1-.32.43,4.79,4.79,0,0,1-3.28,1.77h0a4.82,4.82,0,0,1-2.72-.55l.08-.1a2.47,2.47,0,0,0,.56-1.83h0a2.33,2.33,0,0,0-.34-1l0-.05c-.1-.15-.21-.31-.34-.47A10.31,10.31,0,0,1,.86,9.78,6.54,6.54,0,0,1,5.88,0Zm1.86,5a1.91,1.91,0,0,0-1.4-.42,1.9,1.9,0,1,0,2.09,1.7,2,2,0,0,0-.69-1.28Zm-1.15,5.7h0l.35,0A4.23,4.23,0,0,0,9.21,3.27a4.17,4.17,0,0,0-3.09-.93A4.2,4.2,0,0,0,2.34,7a4,4,0,0,0,.32,1.25,13.4,13.4,0,0,0,1.26,1.94,4.73,4.73,0,0,1,.81,2.24h0c0,.1,0,.21,0,.32h0a2.45,2.45,0,0,0,1.31-.83,2.53,2.53,0,0,0,.53-1.12Z"/></svg>