<svg id="Layer_1" data-name="Layer 1" xmlns="http://www.w3.org/2000/svg" viewBox="0 0 367.93 206.27"><defs><style>.cls-1{fill:#ff9d28;}.cls-2{fill:#68c5ed;}.cls-3{fill:#044d80;}.cls-4{fill:#e54747;}.cls-5{fill:#3a5373;}</style></defs><path class="cls-1" d="M17.85,26H65.08V8.35Z"/><path class="cls-2" d="M65.08,8.35V70.81L87.38,0Z"/><path class="cls-3" d="M65.08,26H47.22L65.08,70.81Z"/><path class="cls-4" d="M17.85,26,51.8,37.53,47.22,26Z"/><path class="cls-3" d="M126,54.37a8.44,8.44,0,0,1-1.29,1,13.66,13.66,0,0,1-2.36,1.16,20.37,20.37,0,0,1-3.56,1,24.78,24.78,0,0,1-4.82.42,22.32,22.32,0,0,1-9-1.68,16.88,16.88,0,0,1-6.31-4.69A19.34,19.34,0,0,1,95,44.44a33.23,33.23,0,0,1-1.16-9,31.31,31.31,0,0,1,1.26-9.09,20.28,20.28,0,0,1,3.79-7.21,17.42,17.42,0,0,1,6.3-4.76,21.48,21.48,0,0,1,8.9-1.71,21.22,21.22,0,0,1,4.56.45,22.48,22.48,0,0,1,3.55,1.07,13.77,13.77,0,0,1,2.53,1.29c.66.46,1.17.83,1.52,1.13a5.49,5.49,0,0,1,1,1.23,3,3,0,0,1,.42,1.56,4.26,4.26,0,0,1-1,2.58,18.81,18.81,0,0,1-2.14,2.4,23.23,23.23,0,0,0-1.74-1.59,11.78,11.78,0,0,0-2.17-1.42,14.84,14.84,0,0,0-2.72-1,12.69,12.69,0,0,0-3.39-.42A10.7,10.7,0,0,0,109,21.22a10.53,10.53,0,0,0-3.59,3.46,14.59,14.59,0,0,0-1.94,4.88,26.88,26.88,0,0,0-.58,5.6,28.16,28.16,0,0,0,.58,5.82,14,14,0,0,0,2,4.92,10.73,10.73,0,0,0,3.72,3.42,11.46,11.46,0,0,0,5.73,1.3,11.76,11.76,0,0,0,3.33-.45A13.49,13.49,0,0,0,123,47.71c.58-.48,1.07-.89,1.46-1.23.25.3.56.67.9,1.1a14.56,14.56,0,0,1,1,1.36,12.49,12.49,0,0,1,.78,1.42,3.21,3.21,0,0,1,.32,1.29,3,3,0,0,1-.32,1.43,6.23,6.23,0,0,1-1,1.29Zm33.34-5c0,3.43.49,5.92,1.49,7.48a12,12,0,0,1-2.18.65,11,11,0,0,1-2.11.2,5.81,5.81,0,0,1-3.55-.91,4.13,4.13,0,0,1-1.53-2.61,11.6,11.6,0,0,1-3.77,2.54,14,14,0,0,1-5.73,1,13.25,13.25,0,0,1-3.51-.48,9.37,9.37,0,0,1-3.19-1.59A8.16,8.16,0,0,1,133,52.78a10.13,10.13,0,0,1-.91-4.51,8.58,8.58,0,0,1,1.59-5.38,11.32,11.32,0,0,1,4-3.28A18,18,0,0,1,142.84,38a48.33,48.33,0,0,1,5.14-.59q.78-.06,1.53-.06h1.4V36.12a4.25,4.25,0,0,0-1.34-3.55,7,7,0,0,0-4.32-1.06,12.75,12.75,0,0,0-5,.92A38.09,38.09,0,0,0,136,34.51a9.61,9.61,0,0,1-1.47-2.44,5.82,5.82,0,0,1-.55-2,2.32,2.32,0,0,1,1-1.75,9.54,9.54,0,0,1,2.76-1.53,22,22,0,0,1,4-1.11,26.5,26.5,0,0,1,4.81-.42,21.77,21.77,0,0,1,6,.71,9.36,9.36,0,0,1,4,2.22,8.47,8.47,0,0,1,2.18,3.74,19,19,0,0,1,.65,5.24V49.41ZM151,41.86h-.91a5.49,5.49,0,0,0-.91.07c-1.09.08-2.16.21-3.23.39a9,9,0,0,0-2.83.91,5.93,5.93,0,0,0-2,1.69,4.32,4.32,0,0,0-.79,2.67,4.7,4.7,0,0,0,1,3.09A4.31,4.31,0,0,0,144.92,52a8.51,8.51,0,0,0,4.3-1.17,5.26,5.26,0,0,0,1.33-1.14A1.93,1.93,0,0,0,151,48.5V41.86ZM175.57,29a12,12,0,0,1,3.24-2.5,11,11,0,0,1,5.58-1.27,13,13,0,0,1,4.58.81,9.93,9.93,0,0,1,3.85,2.64,13.05,13.05,0,0,1,2.7,4.81,23.35,23.35,0,0,1,1,7.35,25.31,25.31,0,0,1-1.17,8.37,14.18,14.18,0,0,1-3,5.2,10.39,10.39,0,0,1-4.12,2.7,13.9,13.9,0,0,1-4.54.78,11.41,11.41,0,0,1-3.28-.42,12.85,12.85,0,0,1-2.37-.94,6.93,6.93,0,0,1-1.49-1,6,6,0,0,1-.64-.72v16H167V26.18c.22,0,.48-.09.79-.13s.57-.08.92-.1.76,0,1.24,0a8.66,8.66,0,0,1,3.68.71,3.38,3.38,0,0,1,1.9,2.41Zm11.71,12a19.88,19.88,0,0,0-.32-3.64,8.83,8.83,0,0,0-1.07-2.93,5.12,5.12,0,0,0-2-1.92,6.37,6.37,0,0,0-3.08-.69Q178.1,31.9,177,33A3.13,3.13,0,0,0,176,35.22V49a7.94,7.94,0,0,0,1.84,1.23,6.37,6.37,0,0,0,3.08.72,5.26,5.26,0,0,0,4.85-2.6A14.37,14.37,0,0,0,187.28,41.08Zm16.07,11.19a11.14,11.14,0,0,1-.58-2.73c-.09-.95-.13-1.91-.13-2.86V16.48l1-.13,1-.1c.35,0,.69,0,1,0a11.27,11.27,0,0,1,2.08.2,4.8,4.8,0,0,1,1.89.78A4.36,4.36,0,0,1,211,18.79a5.87,5.87,0,0,1,.52,2.64v4.62h9.11v6.57h-9.11V46.5c0,3,1.23,4.54,3.71,4.54a4.94,4.94,0,0,0,1.72-.3,9.42,9.42,0,0,0,1.46-.65,7.51,7.51,0,0,0,1.14-.75,8.93,8.93,0,0,0,.69-.58,20.2,20.2,0,0,1,1.49,2.48,4.39,4.39,0,0,1,.52,2,2.6,2.6,0,0,1-.68,1.68,6.8,6.8,0,0,1-1.92,1.51,12.06,12.06,0,0,1-3,1.12,16.49,16.49,0,0,1-3.84.42,10.9,10.9,0,0,1-6.28-1.56,8.31,8.31,0,0,1-3.16-4.1ZM243,51.43a10.4,10.4,0,0,0,2.88-.36,11.44,11.44,0,0,0,2.21-.88,9.32,9.32,0,0,0,1.7-1.14c.48-.41.92-.79,1.31-1.14a18.61,18.61,0,0,1,1.63,2.51,5.48,5.48,0,0,1,.85,2.5A3.26,3.26,0,0,1,252,55.53a12.28,12.28,0,0,1-3.87,1.79,21,21,0,0,1-5.89.74,23.57,23.57,0,0,1-6-.78,13.35,13.35,0,0,1-5.27-2.73,14,14,0,0,1-3.74-5.24,20.92,20.92,0,0,1-1.43-8.3A17.81,17.81,0,0,1,227,34,14.09,14.09,0,0,1,230.39,29a13.46,13.46,0,0,1,4.78-2.86,16.79,16.79,0,0,1,5.47-.91,15,15,0,0,1,6.18,1.14A11.46,11.46,0,0,1,251,29.46a12.14,12.14,0,0,1,2.31,4.4,18.88,18.88,0,0,1,.71,5.2V40q0,.53,0,1.11c0,.39,0,.77-.07,1.14a7.31,7.31,0,0,1-.09.88h-19.2a10.21,10.21,0,0,0,2.22,5.95q2,2.39,6.2,2.38Zm3-13.21a9.57,9.57,0,0,0-1.21-5.08q-1.22-2-4.36-1.95A5.38,5.38,0,0,0,236.13,33a7.67,7.67,0,0,0-1.61,5.18Zm23.4-9a12,12,0,0,1,1-1.3,7.78,7.78,0,0,1,1.6-1.29,10.75,10.75,0,0,1,2.08-1,7.75,7.75,0,0,1,2.44-.38,11,11,0,0,1,1.66.13,5.5,5.5,0,0,1,1.63.48,3.2,3.2,0,0,1,1.2,1,2.49,2.49,0,0,1,.46,1.51,9.16,9.16,0,0,1-.72,3.27,27.25,27.25,0,0,1-1.43,3.14,9.54,9.54,0,0,0-2.21-1.4,6.37,6.37,0,0,0-2.61-.49,5,5,0,0,0-3.38,1.18,3.57,3.57,0,0,0-1.37,2.8V57.93h-8.85V26.18c.22,0,.48-.09.78-.13s.57-.08.91-.1.76,0,1.24,0a7.72,7.72,0,0,1,3.61.8,3.63,3.63,0,0,1,1.92,2.49Zm25.16,0a12,12,0,0,1,1-1.3,7.78,7.78,0,0,1,1.6-1.29,10.75,10.75,0,0,1,2.08-1,7.75,7.75,0,0,1,2.44-.38,11,11,0,0,1,1.66.13,5.41,5.41,0,0,1,1.63.48,3.12,3.12,0,0,1,1.2,1,2.42,2.42,0,0,1,.46,1.51,9.16,9.16,0,0,1-.72,3.27,27.25,27.25,0,0,1-1.43,3.14,9.54,9.54,0,0,0-2.21-1.4,6.37,6.37,0,0,0-2.61-.49,5,5,0,0,0-3.38,1.18,3.57,3.57,0,0,0-1.37,2.8V57.93h-8.85V26.18c.22,0,.48-.09.79-.13s.56-.08.91-.1.75,0,1.23,0a7.72,7.72,0,0,1,3.61.8,3.63,3.63,0,0,1,1.92,2.49Zm42.24,20.2c0,3.43.49,5.92,1.49,7.48a12,12,0,0,1-2.18.65,11,11,0,0,1-2.11.2,5.81,5.81,0,0,1-3.55-.91,4.13,4.13,0,0,1-1.53-2.61,11.6,11.6,0,0,1-3.77,2.54,14,14,0,0,1-5.73,1,13.25,13.25,0,0,1-3.51-.48,9.37,9.37,0,0,1-3.19-1.59,8.16,8.16,0,0,1-2.34-2.95,10.13,10.13,0,0,1-.91-4.51A8.58,8.58,0,0,1,311,42.89a11.32,11.32,0,0,1,4-3.28A18,18,0,0,1,320.25,38a48.33,48.33,0,0,1,5.14-.59q.78-.06,1.53-.06h1.4V36.12A4.25,4.25,0,0,0,327,32.57a7,7,0,0,0-4.32-1.06,12.75,12.75,0,0,0-5,.92,38.09,38.09,0,0,0-4.26,2.08A9.61,9.61,0,0,1,312,32.07a5.82,5.82,0,0,1-.55-2,2.32,2.32,0,0,1,1-1.75,9.54,9.54,0,0,1,2.76-1.53,22,22,0,0,1,4-1.11,26.42,26.42,0,0,1,4.81-.42,21.77,21.77,0,0,1,6,.71,9.36,9.36,0,0,1,4,2.22,8.47,8.47,0,0,1,2.18,3.74,19,19,0,0,1,.65,5.24V49.41Zm-8.33-7.55h-.91a5.49,5.49,0,0,0-.91.07c-1.09.08-2.16.21-3.23.39a9,9,0,0,0-2.83.91,5.93,5.93,0,0,0-2,1.69,4.32,4.32,0,0,0-.79,2.67,4.7,4.7,0,0,0,1.05,3.09A4.31,4.31,0,0,0,322.33,52a8.51,8.51,0,0,0,4.3-1.17A5.26,5.26,0,0,0,328,49.64a1.93,1.93,0,0,0,.49-1.14V41.86Z"/><polygon class="cls-5" points="60.47 171.03 37.35 171.03 30.24 148.84 23.12 171.03 0 171.03 18.8 184.48 11.81 206.27 30.24 193.37 48.66 206.27 41.67 184.48 60.47 171.03"/><polygon class="cls-5" points="137.34 171.03 114.22 171.03 107.1 148.84 99.98 171.03 76.86 171.03 95.67 184.48 88.68 206.27 107.1 193.37 125.53 206.27 118.54 184.48 137.34 171.03"/><polygon class="cls-5" points="214.2 171.03 191.08 171.03 183.97 148.84 176.85 171.03 153.73 171.03 172.53 184.48 165.54 206.27 183.97 193.37 202.39 206.27 195.4 184.48 214.2 171.03"/><polygon class="cls-5" points="291.07 171.03 267.95 171.03 260.83 148.84 253.71 171.03 230.59 171.03 249.4 184.48 242.41 206.27 260.83 193.37 279.26 206.27 272.27 184.48 291.07 171.03"/><polygon class="cls-5" points="367.93 171.03 344.81 171.03 337.7 148.84 330.58 171.03 307.46 171.03 326.26 184.48 319.27 206.27 337.7 193.37 356.12 206.27 349.13 184.48 367.93 171.03"/></svg>