<svg id="Layer_1" data-name="Layer 1" xmlns="http://www.w3.org/2000/svg" viewBox="0 0 367.93 206.27"><defs><style>.cls-1{fill:#3a5373;}.cls-2{fill:#ff4937;}</style></defs><polygon class="cls-1" points="60.47 171.03 37.35 171.03 30.24 148.84 23.12 171.03 0 171.03 18.8 184.48 11.81 206.27 30.24 193.37 48.66 206.27 41.67 184.48 60.47 171.03"/><polygon class="cls-1" points="137.34 171.03 114.22 171.03 107.1 148.84 99.98 171.03 76.86 171.03 95.67 184.48 88.68 206.27 107.1 193.37 125.53 206.27 118.54 184.48 137.34 171.03"/><polygon class="cls-1" points="214.2 171.03 191.08 171.03 183.97 148.84 176.85 171.03 153.73 171.03 172.53 184.48 165.54 206.27 183.97 193.37 202.39 206.27 195.4 184.48 214.2 171.03"/><polygon class="cls-1" points="291.07 171.03 267.95 171.03 260.83 148.84 253.71 171.03 230.59 171.03 249.4 184.48 242.41 206.27 260.83 193.37 279.26 206.27 272.27 184.48 291.07 171.03"/><polygon class="cls-1" points="367.93 171.03 344.81 171.03 337.7 148.84 330.58 171.03 307.46 171.03 326.26 184.48 319.27 206.27 337.7 193.37 356.12 206.27 349.13 184.48 367.93 171.03"/><path class="cls-2" d="M208.17,17.92l-5.49-5.4s4.15-8.2,13.69-8.2,13.18,6.73,13.18,11.34-3.82,9.54-10,12.07-7.29,5.95-7.29,6.5h17.33v7.7H202.87S200.79,28.56,214.8,21.7c2.08-1,7-2.91,6.73-7S210.89,10.22,208.17,17.92Z"/><path class="cls-2" d="M207.76,82.56a32.64,32.64,0,1,1-21.59-57.12l.44,0L197.85,1.17a58.1,58.1,0,1,0,22.76,103.7Z"/><polygon class="cls-2" points="212.47 74.74 226.92 99.81 241.36 74.74 226.92 49.66 198.35 49.66 183.97 74.74 212.47 74.74"/></svg>