<svg xmlns="http://www.w3.org/2000/svg" fill="none" viewBox="0 0 171 101"><defs/><g clip-path="url(#clip0)"><path fill="#4C80C0" d="M50.04 100.61c27.6363 0 50.04-22.4035 50.04-50.0398C100.08 22.9338 77.6763.530151 50.04.530151S0 22.9338 0 50.5702C0 78.2065 22.4037 100.61 50.04 100.61z"/><path fill="#fff" stroke="#373D3F" stroke-miterlimit="10" stroke-width=".5" d="M143.142 79.3604H57.9117c-14.86 0-26.9-12.04-26.9-26.9s12.04-26.9 26.9-26.9h85.2303c14.86 0 26.9 12.04 26.9 26.9s-12.04 26.9-26.9 26.9z"/><path stroke="#373D3F" stroke-miterlimit="10" d="M57.9117 76.3604c-13.18 0-23.9-10.72-23.9-23.9 0-13.18 10.72-23.9 23.9-23.9h85.2303c13.18 0 23.9 10.72 23.9 23.9 0 13.18-10.72 23.9-23.9 23.9H57.9117zM100.531 28.5604v47.8"/><path fill="#4C80C0" d="M142.94 68.5401c8.881 0 16.08-7.1992 16.08-16.08 0-8.8807-7.199-16.08-16.08-16.08-8.881 0-16.08 7.1993-16.08 16.08 0 8.8808 7.199 16.08 16.08 16.08z"/><path stroke="#fff" stroke-miterlimit="10" d="M142.938 62.7498c5.683 0 10.29-4.607 10.29-10.29 0-5.683-4.607-10.29-10.29-10.29-5.683 0-10.29 4.607-10.29 10.29 0 5.683 4.607 10.29 10.29 10.29z"/><path stroke="#fff" stroke-miterlimit="10" stroke-width=".5" d="M142.938 62.7498c1.956 0 3.54-4.607 3.54-10.29 0-5.683-1.584-10.29-3.54-10.29-1.955 0-3.54 4.607-3.54 10.29 0 5.683 1.585 10.29 3.54 10.29z"/><path stroke="#fff" stroke-miterlimit="10" stroke-width=".5" d="M142.938 55.9998c5.683 0 10.29-1.5849 10.29-3.54s-4.607-3.54-10.29-3.54c-5.683 0-10.29 1.5849-10.29 3.54s4.607 3.54 10.29 3.54z"/><path fill="#373D3F" d="M112.38 52.4602l-5.97 2.98v-5.97l5.97 2.99zM88.68 52.4602l5.97-2.98v5.97l-5.97-2.99z"/></g><defs><clipPath id="clip0"><path fill="#fff" d="M0 0h170.29v100.09H0z" transform="translate(0 .530151)"/></clipPath></defs></svg>
